<mxfile host="app.diagrams.net" modified="2020-08-09T02:02:23.821Z" agent="5.0 (Windows NT 10.0; Win64; x64) AppleWebKit/537.36 (KHTML, like Gecko) Chrome/84.0.4147.105 Safari/537.36" etag="I2GXMUcyw3d5QepBcIX-" version="13.5.9" type="github">
  <diagram id="WDIRTl-BaHk9hwa9bno9" name="第 1 页">
    <mxGraphModel dx="493" dy="660" grid="1" gridSize="10" guides="1" tooltips="1" connect="1" arrows="1" fold="1" page="1" pageScale="1" pageWidth="827" pageHeight="1169" math="0" shadow="0">
      <root>
        <mxCell id="0" />
        <mxCell id="1" parent="0" />
        <mxCell id="TJUlih82KMVXJ_ttcsmv-1" value="https://www.xiaodaojiang.top:80/myblo" style="text;strokeColor=none;fillColor=none;align=center;verticalAlign=middle;whiteSpace=wrap;rounded=0;fontSize=20;fontFamily=Helvetica;fontColor=#666666;" vertex="1" parent="1">
          <mxGeometry x="200" y="210" width="40" height="20" as="geometry" />
        </mxCell>
        <mxCell id="TJUlih82KMVXJ_ttcsmv-7" value="" style="strokeWidth=1;html=1;shape=mxgraph.flowchart.annotation_2;align=left;labelPosition=right;pointerEvents=1;fontSize=20;direction=south;sketch=0;fillColor=#d5e8d4;strokeColor=#82b366;" vertex="1" parent="1">
          <mxGeometry x="50" y="130" width="58" height="80" as="geometry" />
        </mxCell>
        <mxCell id="TJUlih82KMVXJ_ttcsmv-8" value="协议 protocol" style="text;html=1;strokeColor=none;fillColor=none;align=center;verticalAlign=middle;whiteSpace=wrap;rounded=0;dashed=1;sketch=0;fontSize=15;fontColor=#EA6B66;" vertex="1" parent="1">
          <mxGeometry x="38.5" y="100" width="81" height="20" as="geometry" />
        </mxCell>
        <mxCell id="TJUlih82KMVXJ_ttcsmv-9" value="" style="shape=curlyBracket;whiteSpace=wrap;html=1;rounded=1;sketch=0;fontSize=20;direction=north;fillColor=#1ba1e2;fontColor=#ffffff;strokeWidth=1;strokeColor=#67AB9F;" vertex="1" parent="1">
          <mxGeometry x="120" y="240" width="180" height="20" as="geometry" />
        </mxCell>
        <mxCell id="TJUlih82KMVXJ_ttcsmv-10" value="主机名hostname" style="text;html=1;strokeColor=none;fillColor=none;align=center;verticalAlign=middle;whiteSpace=wrap;rounded=0;dashed=1;sketch=0;fontSize=15;fontColor=#EA6B66;" vertex="1" parent="1">
          <mxGeometry x="200" y="270" width="40" height="20" as="geometry" />
        </mxCell>
        <mxCell id="TJUlih82KMVXJ_ttcsmv-11" value="" style="shape=crossbar;whiteSpace=wrap;html=1;rounded=1;sketch=0;fontSize=15;fontColor=#ffffff;fillColor=#d80073;strokeWidth=1;strokeColor=#67AB9F;" vertex="1" parent="1">
          <mxGeometry x="305" y="190" width="25" height="20" as="geometry" />
        </mxCell>
        <mxCell id="TJUlih82KMVXJ_ttcsmv-12" value="&lt;span&gt;端口：port&lt;/span&gt;" style="text;html=1;strokeColor=none;fillColor=none;align=center;verticalAlign=middle;whiteSpace=wrap;rounded=0;dashed=1;sketch=0;fontSize=15;fontColor=#EA6B66;" vertex="1" parent="1">
          <mxGeometry x="272.5" y="160" width="90" height="20" as="geometry" />
        </mxCell>
        <mxCell id="TJUlih82KMVXJ_ttcsmv-14" value="" style="shape=crossbar;whiteSpace=wrap;html=1;rounded=1;sketch=0;strokeWidth=1;fontSize=15;fontColor=#EA6B66;strokeColor=#67AB9F;" vertex="1" parent="1">
          <mxGeometry x="330" y="240" width="60" height="20" as="geometry" />
        </mxCell>
        <mxCell id="TJUlih82KMVXJ_ttcsmv-15" value="服务器名servername" style="text;html=1;strokeColor=none;fillColor=none;align=center;verticalAlign=middle;whiteSpace=wrap;rounded=0;sketch=0;fontSize=15;fontColor=#EA6B66;" vertex="1" parent="1">
          <mxGeometry x="325" y="280" width="70" height="20" as="geometry" />
        </mxCell>
        <mxCell id="TJUlih82KMVXJ_ttcsmv-16" value="&lt;font color=&quot;#67ab9f&quot;&gt;[ 协议: ] [[ // ]主机名 ] [ :端口 ] [ /服务器名 ]&lt;/font&gt;" style="text;whiteSpace=wrap;html=1;fontSize=15;fontFamily=Helvetica;fontColor=#EA6B66;" vertex="1" parent="1">
          <mxGeometry x="70" y="330" width="300" height="30" as="geometry" />
        </mxCell>
      </root>
    </mxGraphModel>
  </diagram>
</mxfile>
